<?xml version="1.0" encoding="UTF-8" standalone="no"?>
<!DOCTYPE svg PUBLIC "-//W3C//DTD SVG 1.1//EN"
 "http://www.w3.org/Graphics/SVG/1.1/DTD/svg11.dtd">
<!-- Generated by graphviz version 2.44.0 ()
 -->
<!-- Title: Graphical Class Hierarchy Pages: 1 -->
<svg width="270pt" height="66pt"
 viewBox="0.00 0.00 270.00 66.00" xmlns="http://www.w3.org/2000/svg" xmlns:xlink="http://www.w3.org/1999/xlink">
<g id="graph0" class="graph" transform="scale(1 1) rotate(0) translate(4 62)">
<title>Graphical Class Hierarchy</title>
<polygon fill="white" stroke="transparent" points="-4,4 -4,-62 266,-62 266,4 -4,4"/>
<!-- Node0 -->
<g id="node1" class="node">
<title>Node0</title>
<g id="a_node1"><a xlink:href="classBigTony_1_1Core_1_1Entity.html" target="_top" xlink:title=" ">
<polygon fill="white" stroke="black" points="0,-19.5 0,-38.5 101,-38.5 101,-19.5 0,-19.5"/>
<text text-anchor="middle" x="50.5" y="-26.5" font-family="FreeSans" font-size="10.00">BigTony.Core.Entity</text>
</a>
</g>
</g>
<!-- Node1 -->
<g id="node2" class="node">
<title>Node1</title>
<g id="a_node2"><a xlink:href="classBigTony_1_1Examples_1_1Bullet.html" target="_top" xlink:title=" ">
<polygon fill="white" stroke="black" points="138,-38.5 138,-57.5 261,-57.5 261,-38.5 138,-38.5"/>
<text text-anchor="middle" x="199.5" y="-45.5" font-family="FreeSans" font-size="10.00">BigTony.Examples.Bullet</text>
</a>
</g>
</g>
<!-- Node0&#45;&gt;Node1 -->
<g id="edge1" class="edge">
<title>Node0&#45;&gt;Node1</title>
<path fill="none" stroke="midnightblue" d="M111.36,-36.74C120.09,-37.87 129.08,-39.03 137.83,-40.16"/>
<polygon fill="midnightblue" stroke="midnightblue" points="111.63,-33.24 101.27,-35.43 110.74,-40.19 111.63,-33.24"/>
</g>
<!-- Node2 -->
<g id="node3" class="node">
<title>Node2</title>
<g id="a_node3"><a xlink:href="classBigTony_1_1Examples_1_1Player.html" target="_top" xlink:title=" ">
<polygon fill="white" stroke="black" points="137,-0.5 137,-19.5 262,-19.5 262,-0.5 137,-0.5"/>
<text text-anchor="middle" x="199.5" y="-7.5" font-family="FreeSans" font-size="10.00">BigTony.Examples.Player</text>
</a>
</g>
</g>
<!-- Node0&#45;&gt;Node2 -->
<g id="edge2" class="edge">
<title>Node0&#45;&gt;Node2</title>
<path fill="none" stroke="midnightblue" d="M111.35,-21.26C119.73,-20.18 128.37,-19.06 136.79,-17.98"/>
<polygon fill="midnightblue" stroke="midnightblue" points="110.74,-17.81 101.27,-22.57 111.63,-24.76 110.74,-17.81"/>
</g>
</g>
</svg>
